<svg width="66" height="38" viewBox="0 0 66 38" fill="none" xmlns="http://www.w3.org/2000/svg">
<path fill-rule="evenodd" clip-rule="evenodd" d="M18.4341 0.553006C18.6811 0.059027 19.2818 -0.141197 19.7758 0.105792L20.5075 0.471648H21.6857H24.0429C24.5951 0.471648 25.0429 0.919363 25.0429 1.47165C25.0429 2.02393 24.5951 2.47165 24.0429 2.47165H23.1355L26.6677 11.767C26.6866 11.7617 26.7057 11.757 26.725 11.7528L44.2969 7.94809L41.5195 1.88827C41.3778 1.57903 41.403 1.21895 41.5864 0.93245C41.7698 0.645954 42.0863 0.472347 42.4264 0.471622L50.6742 0.454049C52.2806 0.450626 53.8 1.5592 53.8 3.39624C53.8 5.01342 52.5034 6.69238 50.6808 6.69238H49.0286C48.4763 6.69238 48.0286 6.24466 48.0286 5.69238C48.0286 5.14009 48.4763 4.69238 49.0286 4.69238H50.6808C51.199 4.69238 51.8 4.11982 51.8 3.39624C51.8 2.88898 51.4163 2.45247 50.6785 2.45404L43.9854 2.46831L48.2234 11.7149C49.6493 11.1879 51.191 10.9 52.8 10.9C60.0902 10.9 66 16.8098 66 24.1C66 31.3901 60.0902 37.3 52.8 37.3C45.5098 37.3 39.6 31.3901 39.6 24.1C39.6 19.1296 42.3471 14.8009 46.4058 12.5493L45.4422 10.4469L34.1037 24.6842C33.5135 24.3014 32.8096 24.079 32.0537 24.079L32.0288 24.0791L43.0268 10.2695L27.3903 13.6551L27.3864 13.6584L31.3775 24.1613C31.598 24.1211 31.8251 24.1002 32.0571 24.1002C33.7938 24.1002 35.2564 25.274 35.6946 26.8716H36.7714C37.3237 26.8716 37.7714 27.3193 37.7714 27.8716C37.7714 28.4239 37.3237 28.8716 36.7714 28.8716H35.6946C35.2564 30.4692 33.7938 31.643 32.0571 31.643C29.9742 31.643 28.2857 29.9545 28.2857 27.8716C28.2857 26.7414 28.7829 25.7273 29.5704 25.0361L25.7647 15.021L23.9978 16.5055C25.5112 18.6533 26.4 21.2729 26.4 24.1C26.4 24.3946 26.3904 24.6869 26.3713 24.9767L29.1605 25.4311C28.7194 25.958 28.4196 26.6072 28.3193 27.3204L26.0899 26.9573C24.7843 32.8738 19.5091 37.3 13.2 37.3C5.90984 37.3 0 31.3901 0 24.1C0 16.8098 5.90984 10.9 13.2 10.9C16.9437 10.9 20.3235 12.4585 22.7257 14.9621L25.0123 13.0409L20.9959 2.47165H20.2714C20.1162 2.47165 19.9631 2.4355 19.8242 2.36607L18.8814 1.89465C18.3874 1.64766 18.1871 1.04698 18.4341 0.553006ZM33.5195 26.8716H32.0572C31.5049 26.8716 31.0572 27.3193 31.0572 27.8716C31.0572 28.4239 31.5049 28.8716 32.0572 28.8716H33.5195C33.2004 29.3374 32.6644 29.643 32.0571 29.643C31.0788 29.643 30.2857 28.8499 30.2857 27.8716C30.2857 26.8933 31.0788 26.1002 32.0571 26.1002C32.6645 26.1002 33.2004 26.4058 33.5195 26.8716ZM13.2 12.9C16.3291 12.9 19.1584 14.1832 21.1906 16.252L12.983 23.1482C12.3282 23.6983 12.6214 24.7633 13.4655 24.9008L24.1119 26.635C22.9631 31.5995 18.5137 35.3 13.2 35.3C7.01441 35.3 2 30.2856 2 24.1C2 17.9144 7.01441 12.9 13.2 12.9ZM15.9384 23.2772L24.3866 24.6534C24.3955 24.4701 24.4 24.2855 24.4 24.1C24.4 21.763 23.6842 19.5931 22.4599 17.7977L15.9384 23.2772ZM47.2422 14.3741C43.8712 16.3045 41.6 19.937 41.6 24.1C41.6 30.2856 46.6144 35.3 52.8 35.3C58.9856 35.3 64 30.2856 64 24.1C64 17.9144 58.9856 12.9 52.8 12.9C51.4884 12.9 50.2295 13.1254 49.0598 13.5397L53.7091 23.6835C53.9392 24.1856 53.7187 24.7791 53.2167 25.0093C52.7146 25.2394 52.121 25.0189 51.8909 24.5168L47.2422 14.3741Z" fill="white"/>
</svg>
