<svg width="286" height="158" viewBox="0 0 286 158" fill="none" xmlns="http://www.w3.org/2000/svg">
<path fill-rule="evenodd" clip-rule="evenodd" d="M82.6626 0.553006C82.9095 0.059027 83.5102 -0.141197 84.0042 0.105792L87.869 2.03819H93.7468H103.937C104.489 2.03819 104.937 2.48591 104.937 3.03819C104.937 3.59048 104.489 4.03819 103.937 4.03819H95.1966L112.444 49.4255L114.296 47.8696C114.42 47.765 114.568 47.6923 114.727 47.6579L194.82 30.316L182.509 3.45485C182.367 3.14561 182.392 2.78552 182.576 2.49902C182.759 2.21253 183.075 2.03892 183.416 2.0382L219.07 1.96223C224.572 1.95051 229.253 5.6262 229.253 11.3583C229.253 16.8646 224.804 22.2844 219.092 22.2844H211.949C211.397 22.2844 210.949 21.8367 210.949 21.2844C210.949 20.7321 211.397 20.2844 211.949 20.2844H219.092C223.499 20.2844 227.253 15.971 227.253 11.3583C227.253 6.95599 223.708 3.95235 219.075 3.96222L184.975 4.03488L196.821 29.8826L205.132 28.0833C206.05 27.8843 206.711 28.9482 206.125 29.6836L200.162 37.1715L205.384 48.5642C212.385 45.4981 220.121 43.7968 228.253 43.7968C259.768 43.7968 285.316 69.3449 285.316 100.86C285.316 132.375 259.768 157.923 228.253 157.923C196.738 157.923 171.19 132.375 171.19 100.86C171.19 78.1879 184.412 58.6039 203.566 49.3987L198.766 38.9249L147.429 103.386C146.864 103.019 146.275 102.687 145.665 102.391L197.832 36.8872L195.673 32.1776L115.393 49.5602L113.196 51.4055L132.443 102.056C134.338 101.286 136.411 100.861 138.582 100.861C147.251 100.861 154.339 107.626 154.856 116.165H158.962C159.514 116.165 159.962 116.612 159.962 117.165C159.962 117.717 159.514 118.165 158.962 118.165H154.856C154.339 126.703 147.251 133.469 138.582 133.469C129.578 133.469 122.278 126.169 122.278 117.165C122.278 111.046 125.649 105.715 130.634 102.926L111.574 52.7682L99.6038 62.8261C108.635 72.9207 114.127 86.2491 114.127 100.86C114.127 104.409 113.803 107.881 113.183 111.25L122.824 112.821C122.652 113.46 122.517 114.115 122.423 114.782L112.786 113.212C107.142 138.789 84.3371 157.923 57.0633 157.923C25.5481 157.923 0 132.375 0 100.86C0 69.3449 25.5481 43.7968 57.0633 43.7968C73.2474 43.7968 87.8578 50.5343 98.2429 61.3574L110.822 50.7881L93.0571 4.03819H87.6329C87.4777 4.03819 87.3246 4.00205 87.1857 3.93262L83.1098 1.89465C82.6158 1.64766 82.4156 1.04698 82.6626 0.553006ZM152.852 116.165H138.582C138.03 116.165 137.582 116.612 137.582 117.165C137.582 117.717 138.03 118.165 138.582 118.165H152.852C152.338 125.598 146.146 131.469 138.582 131.469C130.683 131.469 124.278 125.065 124.278 117.165C124.278 111.902 127.121 107.303 131.354 104.819L131.534 105.292L131.889 106.227L133.758 105.516L133.403 104.582L133.154 103.927C134.828 103.24 136.661 102.861 138.582 102.861C146.146 102.861 152.338 108.732 152.852 116.165ZM199.228 35.1338L197.675 31.7442L202.814 30.6315L199.228 35.1338ZM57.0633 45.7968C72.6327 45.7968 86.6929 52.2587 96.7082 62.6468L50.5797 101.405C49.9249 101.955 50.2181 103.02 51.0622 103.158L110.809 112.89C105.321 137.515 83.3418 155.923 57.0633 155.923C26.6527 155.923 2 131.271 2 100.86C2 70.4495 26.6527 45.7968 57.0633 45.7968ZM53.5351 101.534L111.208 110.929C111.811 107.664 112.127 104.299 112.127 100.86C112.127 86.7391 106.811 73.8596 98.0718 64.1134L53.5351 101.534ZM204.4 51.2175C185.934 60.1065 173.19 78.995 173.19 100.86C173.19 131.271 197.843 155.923 228.253 155.923C258.664 155.923 283.316 131.271 283.316 100.86C283.316 70.4495 258.664 45.7968 228.253 45.7968C220.418 45.7968 212.965 47.4333 206.217 50.3831L229.162 100.444C229.392 100.946 229.172 101.54 228.67 101.77C228.168 102 227.574 101.78 227.344 101.278L204.4 51.2175Z" fill="white"/>
</svg>
